# xmcd CD database file
#
# Track frame offsets:
# 150
# 10904
# 22659
# 32548
# 44006
# 53644
# 64319
# 78438
# 89960
# 98955
# 110921
# 122945
# 132610
# 142318
# 156008
# 166756
# 178576
# 188480
# 199904
# 209608
# 220219
# 234618
# 246129
# 255096
# 267090
# 279147
# 288777
# 298462
#
# Disc length: 4154 seconds
# Revision: 26
# Processed by: cddbd v1.5.2PL0 Copyright (c) Steve Scherf et al.
# Submitted via: MusicBin 0.4
#
DISCID=a710381c
DTITLE=Beatles - Help! (Mono)
DYEAR=1965
DGENRE=Rock
TTITLE0=Help! (Mono)
TTITLE1=The Night Before (Mono)
TTITLE2=You've Got To Hide Your Love Away (Mono)
TTITLE3=I Need You (Mono)
TTITLE4=Another Girl (Mono)
TTITLE5=You're Going To Lose That Girl (Mono)
TTITLE6=Ticket To Ride (Mono)
TTITLE7=Act Naturally (Mono)
TTITLE8=It's Only Love (Mono)
TTITLE9=You Like Me Too Much (Mono)
TTITLE10=Tell Me What You See (Mono)
TTITLE11=I've Just Seen A Face (Mono)
TTITLE12=Yesterday (Mono)
TTITLE13=Dizzy Miss Lizzy (Mono)
TTITLE14=Help! [Original 1965 Stereo Mix]
TTITLE15=The Night Before [Original 1965 Stereo Mix]
TTITLE16=You've Got To Hide Your Love Away [Original 1965 Stereo M
TTITLE16=ix]
TTITLE17=I Need You [Original 1965 Stereo Mix]
TTITLE18=Another Girl [Original 1965 Stereo Mix]
TTITLE19=You're Going To Lose That Girl [Original 1965 Stereo Mix]
TTITLE20=Ticket To Ride [Original 1965 Stereo Mix]
TTITLE21=Act Naturally [Original 1965 Stereo Mix]
TTITLE22=It's Only Love [Original 1965 Stereo Mix]
TTITLE23=You Like Me Too Much [Original 1965 Stereo Mix]
TTITLE24=Tell Me What You See [Original 1965 Stereo Mix]
TTITLE25=I've Just Seen A Face [Original 1965 Stereo Mix]
TTITLE26=Yesterday [Original 1965 Stereo Mix]
TTITLE27=Dizzy Miss Lizzy [Original 1965 Stereo Mix]
EXTD=
EXTT0=
EXTT1=
EXTT2=
EXTT3=
EXTT4=
EXTT5=
EXTT6=
EXTT7=
EXTT8=
EXTT9=
EXTT10=
EXTT11=
EXTT12=
EXTT13=
EXTT14=
EXTT15=
EXTT16=
EXTT17=
EXTT18=
EXTT19=
EXTT20=
EXTT21=
EXTT22=
EXTT23=
EXTT24=
EXTT25=
EXTT26=
EXTT27=
PLAYORDER=
